<?xml version="1.0" encoding="UTF-8"?>
<svg version="1.1" viewBox="0 0 2000 808" width="1280" height="1280" xmlns="http://www.w3.org/2000/svg">
<path transform="translate(0)" d="m0 0h2e3v808h-2e3z" fill="#FCFDFC"/>
<path transform="translate(138,294)" d="m0 0h7l57 14 5 3 8 15 12 26 11 23 4 4 34 5 73 10 230 33 65 9 7 2 1 3-11 48-20 91-10 45-2 5-315 1-3-4-12-48-18-71-28-112-9-24-10-19-13-28-3-6-15-4-38-9-8-3-1-1 1-7z" fill="#FDFEFD"/>
<path transform="translate(138,270)" d="m0 0 17 2 39 9 17 5 10 6 8 11 9 17 13 28 4 7 8 2 377 54 16 3 10 5 8 9 2 4v7l-18 83-24 108-4 12-9 10-6 3-4 1h-322l-8-3-6-5-6-10-5-17-16-64-22-89-16-64-8-21-20-41-9-4-36-9-12-6-6-5-5-9-1-3v-15l5-10 7-6 8-4zm0 24-2 3v5l5 3 37 9 18 4 3 3 14 29 10 21 5 11 6 18 21 84 17 67 15 60 5 18 2 2 315-1 3-10 20-90 19-85 1-6-2-2-62-9-65-9-275-39-8-2-8-16-16-33-8-16-4-4-18-5-41-10z" fill="#04C8E7"/>
<path transform="translate(138,270)" d="m0 0 17 2 39 9 17 5 10 6 8 11 9 17 13 28 4 7 8 2 125 18 10 3 29 4 21 3 12 2v3l-5 2-14 1-5-1-12-1h-6l-2-1-8 1-9-1-5 1 12 1h6v2l3-1v2l18 3v3l2 1h-3v2l-17-1-10-2-18-2-1-1-17-2-1 1-13-1-70-10-37-5-8-2-4-6-11-23-16-34-2-5-10-3-52-13h-7l-1 7 8 3 42 10 11 3 8 15 10 22 9 17 9 24 22 88 17 67 15 60 3 14 1 7 4 2h-4l-6 2-5-1-1 3 1 7 3 5h-4l-5-5-3-4-3-7v-3h-2l-3-10-16-64-22-89-16-64-8-21-20-41-9-4-36-9-12-6-6-5-5-9-1-3v-15l5-10 7-6 8-4z" fill="#3EE1AC"/>
<path transform="translate(1105,373)" d="m0 0h8l17 3 11 4 10 6 5 5 5 6 6 11 2 9v82l-3 11-5 10-7 8-10 7-10 4-14 4h-19l-12-3-14-5-11-9-7-9-5-10-2-12v-73l2-12 7-14 7-8 10-7 13-5z" fill="#010101"/>
<path transform="translate(786,327)" d="m0 0h93l2 1v45l-47 1-3 3v31l1 2 7 1h36l2 1 1 6v33l-2 6-1 1h-44l-1 37h55l1 1v40l-2 6-15 1h-37l-48-1-1-1v-210l1-3z" fill="#010101"/>
<path transform="translate(1340,375)" d="m0 0h30l31 1 14 2 8 4 10 9 7 12 3 9 1 11v113l-1 5-6-1-9-6-14-9-4-1-2 4-9 7-12 5-5 2h-22l-13-5-10-9-7-8-5-11-3-11-1-13 3-16 5-12 7-9 8-7 11-6 11-2 30-2-3-10-14-2-40-1-1-37z" fill="#010101"/>
<path transform="translate(1754,373)" d="m0 0h11l16 3 13 5 10 7 7 10 4 7 2 10v22l-2 10-7 10-10 9-16 8-15 6-18 6-1 6 4 4 5 2 10-2 6-3 4-5 5-1h33l2 1 1 9-4 17-6 10-7 7-14 8-9 3h-23l-21-4-15-8-5-4-9-15-5-21-1-7v-52l2-15 4-13 7-11 7-7 14-7 15-4z" fill="#010101"/>
<path transform="translate(434,447)" d="m0 0h23l3 2 1 14 6 2 4 2h4l6-7 7-1 8 7 8 8 1 7-8 8 1 6 3 6v2l13 1 2 2 1 4v18l-3 5-12 4-3 7 1 6 5 6-1 6-14 14-6 1-5-3-2-2h-6l-8 4-2 5-2 7-7 3h-13l-6-3-3-9-3-3-10-4-5 1-6 5h-5l-5-4-5-5-7-9 2-5 5-5-1-9-4-4-11-3-2-3-1-19 2-5 2-2 10-2 5-7 1-8-8-8v-6l7-8 7-6 4-2 5 1 9 7 5-1 8-2 1-11 2-4z" fill="#04C8E7"/>
<path transform="translate(1255,327)" d="m0 0h41l3 1 1 4v32l-1 9-46 1-6 3-2 2-1 6v96l2 9 4 4 3 1h41l7 1 2 8v25l-1 9-3 4-13 1h-26l-16-2-13-4-14-8-11-11-6-12-3-10-1-10v-104l2-13 4-10 6-9 9-10 13-8 9-3z" fill="#010101"/>
<path transform="translate(1605,322)" d="m0 0h45l1 51h24l1 1 1 26-1 16-1 2-9 1h-13l-2 1v70l4 5 5 1 17 1 2 7v31l-3 7h-27l-19-5-12-7-9-12-5-13-1-8-1-77-15-3-2-3v-27l1-13 1-1 16-1v-37l1-12z" fill="#010101"/>
<path transform="translate(901,373)" d="m0 0h44l4 10 9 36 6 34 1 4 5-17 6-31 9-32 3-4h43l3 1-4 17-12 39-14 46-12 40-8 24-2 2h-33l-9-27-14-46-15-49-11-36-1-10z" fill="#010101"/>
<path transform="translate(1866,316)" d="m0 0h25l1 1v224l-2 1h-43l-2-1v-224z" fill="#010101"/>
<path transform="translate(1525,373)" d="m0 0h8l20 5 16 8 11 8 2 1-1 7-5 5-12 17-6 8-11-6-9-4-5-1h-7l-4 2-2 7-1 111-2 1h-42l-2-1v-164l4-1 12 6 4 3 4-1 7-5 13-4z" fill="#010101"/>
<path transform="translate(136,302)" d="m0 0 13 4 38 9 11 3 8 15 10 22 9 17 9 24 22 88 17 67 15 60 3 14 1 7 4 2h-4l-6 2-5-1-1 3 1 7 3 5h-4l-5-5-3-4-3-7v-3h-2l-3-10-16-64-22-89-16-64-1-5 2 1-1-10-2-8h2l1-2h3v-6-3l-1-8-3-8-3-9-4-8-1-5v-5h-2l-2-5v-3l-19-4-6-2-14-3-20-5-3-2z" fill="#1DD6BA"/>
<path transform="translate(542,664)" d="m0 0 11 1 10 3 9 6 8 9 8 16 1 4v14l-3 10-7 11-9 8-12 6-14 3-15-4-10-5-7-6-8-13-4-13v-11l4-12 7-11 5-5 5-4 8-4z" fill="#04C8E7"/>
<path transform="translate(341,665)" d="m0 0h16l10 3 6 4 9 8 7 10 4 11v15l-2 9-6 10-7 8-14 8-10 3h-10l-13-4-10-6-9-10-6-12-2-9v-9l4-13 7-11 7-7 9-5z" fill="#04C8E7"/>
<path transform="translate(215,289)" d="m0 0 4 2 5 5 7 10 16 33 8 16 8 2 125 18 10 3 29 4 21 3 12 2v3l-5 2-14 1-5-1-12-1h-6l-2-1-8 1-9-1-5 1 12 1h6v2l3-1v2l18 3v3l2 1h-3v2l-17-1-10-2-18-2-1-1-17-2-1 1-13-1-70-10-37-5-8-2-4-6-11-23-13-28 1-2 4 7 10 21v2h2l-5-12v-2l4 1 1 2h4l3 3v-3h2v-3h-2l-2-5v-4h-2l-2-4v-3h-2l-4-10-2-6h-2l-2-7h-2l1-3z" fill="#1DD6BA"/>
<path transform="translate(434,447)" d="m0 0h23l3 2-1 4 1 9 4 4v4l-6 2-1 4-5 3 2 6-1 3-18 2-7 3-5 5-6 10-2 7v11l5 14v2h2v2h2l1 5-2 2h-3l-1 5-3-1-2 3v3l1 8-5 3-2 3-7 1-12-9-5-7 2-5 5-5-1-9-4-4-11-3-2-3-1-19 2-5 2-2 10-2 5-7 1-8-8-8v-6l7-8 7-6 4-2 5 1 9 7 5-1 8-2 1-11 2-4z" fill="#1ED6B9"/>
<path transform="translate(437,490)" d="m0 0h14l10 4 6 4 6 9 3 10v7l-4 10-6 8-8 6-9 3h-10l-10-4-8-7-5-8-2-6v-11l4-11 6-8 10-5z" fill="#FDFEFD"/>
<path transform="translate(1102,419)" d="m0 0h15l5 3 3 7v56l-5 10-5 2-9-1-7-3-2-3-1-5v-57l2-6z" fill="#F4FCFC"/>
<path transform="translate(953,625)" d="m0 0h14l10 5 6 8 2 6v10l-3 8-6 7-9 4-10 1-9-3-6-4-5-7-1-3v-14l4-9 8-7z" fill="#F9FDFC"/>
<path transform="translate(539,688)" d="m0 0h10l10 5 6 8 1 2v11l-3 6-6 7-6 3-10 1-9-3-7-8-2-7v-7l3-8 6-7z" fill="#FDFEFD"/>
<path transform="translate(343,688)" d="m0 0h11l8 4 7 8 1 3v12l-6 9-4 4-8 3h-8l-8-3-6-7-2-5v-13l5-9 5-4z" fill="#FDFEFD"/>
<path transform="translate(1369,625)" d="m0 0 21 1 7 3 3 3 1 8-4 7-3 4 8 11 5 6 4 3v2h-6l-8-7-7-11-4-3-6-1v16l1 2 5 2v2h-16l2-4 1-1v-38l-1-2-3-1z" fill="#010101"/>
<path transform="translate(1780,625)" d="m0 0 22 1 7 3 3 4 1 5-3 7-4 4 2 5 8 11 7 7v1h-6l-8-7-8-12-3-2h-6v17l5 2v2h-16v-2l3-2 1-8v-24l-1-8z" fill="#010101"/>
<path transform="translate(1518,625)" d="m0 0 14 1-2 1 4 11 10 23 2 1 5-10-2-9-7-15-2-2h10l3 13 2 3 5-12v-5h6l-2 6-6 13 1 7 6 12 3-3 9-23 3-10-4-1v-1h10l-2 6-13 30-6 11h-3l-6-15-3-3-8 19-3-1-15-35-4-8-5-2z" fill="#010101"/>
<path transform="translate(1382,469)" d="m0 0h11l5 2 2 3v11l-3 4h-2l-1 3-7 4-9 1-8-3-3-3-2-10 3-6 6-4z" fill="#F7FCFC"/>
<path transform="translate(850,625)" d="m0 0 10 1h5l-3 5-1 17h26l-1-18-2-4 10 1-1 3v37l3 3v2h-13l2-3 1-6v-11l-25-1v17l4 2v2l-13 1 3-9 1-35-6-2z" fill="#010101"/>
<path transform="translate(1624,625)" d="m0 0h14l-2 4v19h23v-19l-2-1 1-2 9 1-1 11v28l4 6h-12l1-4 1-17h-25v17l4 2-2 2-11 1 2-6v-38l-4-2z" fill="#010101"/>
<path transform="translate(953,625)" d="m0 0h14l10 5 6 8 2 6v10l-3 8-6 7-9 4-10 1-9-3-6-4-5-7-1-3v-14l4-9 8-7zm0 3-6 4-4 5-2 5v10l4 10 8 7 5 2h7l6-3 5-4 3-5 1-4v-8l-4-10-8-7-5-2z" fill="#010101"/>
<path transform="translate(1755,418)" d="m0 0h11l6 3 3 5v5l-5 6-11 4-7 2-5-1-2-3v-11l3-6 4-3z" fill="#F6FCFC"/>
<path transform="translate(1139,625)" d="m0 0 32 1v6l-2 2-1-3-2-1h-15l-1 18 13-1 5-2-1 9-5-2h-11l-1 3v13h16l9-3-3 6-3 1-28 1v-3l2-2 1-23v-17l-5-1z" fill="#010101"/>
<path transform="translate(1708,625)" d="m0 0 32 1-1 8-4-4h-15l-1 18 13-1 5-2 1 2-2 6-4-1-13-1v17h17l5-3h2l-1 4-3 3-29 1 2-5 1-33-2-7-3-1z" fill="#010101"/>
<path transform="translate(1860,625)" d="m0 0 31 1 1 3-2 5-3-4-16-1v19l12-1 6-2-1 8-5-1h-12v16h15l9-3-2 5-3 2-29 1 2-4 1-4v-36l-4-2z" fill="#010101"/>
<path transform="translate(1297,625)" d="m0 0 31 1 1 4-2 3-4-3-15-1-1 19 12-1 7-2v8l-5-1h-13l-1 17 17-1 5-3h2l-1 5-3 2-29 1 2-4 1-7v-33l-4-2z" fill="#010101"/>
<path transform="translate(1023,625)" d="m0 0h15l10 2 6 5 2 8-4 8-6 3h-8v-2l9-2 3-5-1-6-1-3-4-2-10-2v34l2 6 4 4h-16l-1-2 4-4v-37l-4-3z" fill="#010101"/>
<path transform="translate(1539,625)" d="m0 0 4 1v2l8 17 1 7-6 11-4-4-11-25-1-7z" fill="#EEFAFB"/>
<path transform="translate(1211,625)" d="m0 0 13 1v7l13 29 2 2 10-25 3-10v-2l-3-1 3-1h6l-1 5-12 28-7 16-4-4-11-24-8-16v-2l-4-1z" fill="#010101"/>
<path transform="translate(792,625)" d="m0 0h9l8 5 2 4-1 3-1-3-5-2-4-3h-9l-4 5v5l5 4 13 5 6 6 1 7-4 7-6 4-4 1h-9l-5-3-3-5-1-5 3 1 6 7 4 2h6l6-4 2-3-1-6-5-4-12-4-6-6-1-8 4-7z" fill="#010101"/>
<path transform="translate(1440,627)" d="m0 0h13l3 9 6 8 4-2 5-8 1-4-2-3h10l-2 4-8 11-5 8v17l3 4v2h-14v-2l4-4v-14l-3-8-9-13-6-4z" fill="#010101"/>
<path transform="translate(1034,629)" d="m0 0h8l6 4 3 6-1 5-3 4-9 1v2l-4-1-1-1v-17z" fill="#E3F8FA"/>
<path transform="translate(1792,629)" d="m0 0h8l6 4 1 2v8l-4 5h-12v-17z" fill="#F4FCFC"/>
<path transform="translate(1380,629)" d="m0 0h8l6 4 2 3-1 7-4 5h-11l-1-1v-10z" fill="#EEFAFB"/>
<path transform="translate(198,320)" d="m0 0 3 3 13 27h-3l-3-1-2-5-3-6-1-5v-5h-2l-2-5z" fill="#19D3C1"/>
<path transform="translate(369,395)" d="m0 0 17 2 4 1 15 2 10 2v2l-18-2-27-4-2-2z" fill="#05C8E5"/>
<path transform="translate(311,632)" d="m0 0h33v1l-12 2-20 1-2-3z" fill="#1FD7B7"/>
<path transform="translate(260,604)" d="m0 0h2l2 5 4 16v5l-2-1-6-24z" fill="#06C9E3"/>
<path transform="translate(369,395)" d="m0 0 17 2 1 3-17-2-2-2z" fill="#06C9E3"/>
<path transform="translate(130,272)" d="m0 0 3 1-9 6-8 9-1-2 6-8z" fill="#1DD4C5"/>
<path transform="translate(198,320)" d="m0 0 3 3 5 10-1 3-3-3v-5h-2l-2-5z" fill="#18D3C3"/>
<path transform="translate(392,548)" d="m0 0 1 3-4 4-2 6-3-1 2-5z" fill="#0ACBDC"/>
<path transform="translate(202,334)" d="m0 0 5 2 1 7-3-1-3-5z" fill="#26D9B5"/>
</svg>
